<svg width="1076" height="145" viewBox="0 0 1076 145" fill="none" xmlns="http://www.w3.org/2000/svg">
<rect width="325" height="145" fill="#071435"/>
<path d="M398.795 48.5977C392.089 48.5977 386.816 50.974 382.975 55.7266C379.133 60.4792 377.213 67.0384 377.213 75.4043C377.213 84.1608 379.052 90.7852 382.73 95.2773C386.441 99.7695 391.796 102.016 398.795 102.016C401.822 102.016 404.752 101.723 407.584 101.137C410.416 100.518 413.362 99.737 416.422 98.793V108.803C410.823 110.919 404.475 111.977 397.379 111.977C386.93 111.977 378.906 108.819 373.307 102.504C367.708 96.1562 364.908 87.0905 364.908 75.3066C364.908 67.8848 366.259 61.3906 368.961 55.8242C371.695 50.2578 375.634 45.9935 380.777 43.0312C385.921 40.069 391.959 38.5879 398.893 38.5879C406.184 38.5879 412.923 40.1178 419.107 43.1777L414.908 52.8945C412.499 51.7552 409.944 50.7624 407.242 49.916C404.573 49.0371 401.757 48.5977 398.795 48.5977ZM495.182 75.209C495.182 86.8301 492.268 95.8633 486.441 102.309C480.647 108.754 472.428 111.977 461.783 111.977C451.008 111.977 442.724 108.786 436.93 102.406C431.168 95.9935 428.287 86.8952 428.287 75.1113C428.287 63.3275 431.184 54.278 436.979 47.9629C442.805 41.6478 451.106 38.4902 461.881 38.4902C472.493 38.4902 480.696 41.6966 486.49 48.1094C492.285 54.5221 495.182 63.5553 495.182 75.209ZM440.689 75.209C440.689 83.998 442.464 90.6712 446.012 95.2285C449.56 99.7533 454.817 102.016 461.783 102.016C468.717 102.016 473.941 99.7695 477.457 95.2773C481.005 90.7852 482.779 84.0957 482.779 75.209C482.779 66.4525 481.021 59.8118 477.506 55.2871C474.023 50.7624 468.814 48.5 461.881 48.5C454.882 48.5 449.592 50.7624 446.012 55.2871C442.464 59.8118 440.689 66.4525 440.689 75.209ZM569.986 111H555.68L520.572 54.1152H520.182L520.426 57.2891C520.882 63.3438 521.109 68.8776 521.109 73.8906V111H510.514V39.6133H524.674L559.684 96.2051H559.977C559.911 95.4564 559.781 92.7383 559.586 88.0508C559.391 83.3307 559.293 79.6523 559.293 77.0156V39.6133H569.986V111ZM629.996 91.6152C629.996 97.9629 627.701 102.943 623.111 106.557C618.521 110.17 612.19 111.977 604.117 111.977C596.044 111.977 589.436 110.723 584.293 108.217V97.1816C587.548 98.7116 590.999 99.916 594.645 100.795C598.323 101.674 601.741 102.113 604.898 102.113C609.521 102.113 612.923 101.234 615.104 99.4766C617.317 97.7188 618.424 95.3587 618.424 92.3965C618.424 89.7272 617.415 87.4648 615.396 85.6094C613.378 83.7539 609.212 81.5566 602.896 79.0176C596.386 76.3809 591.796 73.3698 589.127 69.9844C586.458 66.599 585.123 62.5299 585.123 57.7773C585.123 51.8203 587.239 47.1328 591.471 43.7148C595.702 40.2969 601.383 38.5879 608.512 38.5879C615.348 38.5879 622.151 40.0853 628.922 43.0801L625.211 52.6016C618.863 49.9323 613.199 48.5977 608.219 48.5977C604.443 48.5977 601.578 49.4277 599.625 51.0879C597.672 52.7155 596.695 54.8802 596.695 57.582C596.695 59.4375 597.086 61.0326 597.867 62.3672C598.648 63.6693 599.934 64.9062 601.725 66.0781C603.515 67.25 606.738 68.7962 611.393 70.7168C616.633 72.8978 620.475 74.9323 622.916 76.8203C625.357 78.7083 627.148 80.8405 628.287 83.2168C629.426 85.5931 629.996 88.3926 629.996 91.6152ZM699.771 39.6133V85.8047C699.771 91.0781 698.632 95.7005 696.354 99.6719C694.107 103.611 690.836 106.654 686.539 108.803C682.275 110.919 677.164 111.977 671.207 111.977C662.353 111.977 655.468 109.633 650.553 104.945C645.637 100.258 643.18 93.8125 643.18 85.6094V39.6133H654.898V84.7793C654.898 90.6712 656.266 95.0169 659 97.8164C661.734 100.616 665.934 102.016 671.598 102.016C682.6 102.016 688.102 96.2376 688.102 84.6816V39.6133H699.771ZM718.033 111V39.6133H729.703V100.99H759.928V111H718.033ZM796.891 111H785.221V49.623H764.225V39.6133H817.887V49.623H796.891V111ZM873.16 111L866.031 91.1758H838.736L831.754 111H819.449L846.158 39.3203H858.854L885.562 111H873.16ZM862.955 81.1172L856.266 61.6836C855.777 60.3815 855.094 58.3307 854.215 55.5312C853.368 52.7318 852.783 50.681 852.457 49.3789C851.578 53.3828 850.292 57.7611 848.6 62.5137L842.154 81.1172H862.955ZM954.459 111H940.152L905.045 54.1152H904.654L904.898 57.2891C905.354 63.3438 905.582 68.8776 905.582 73.8906V111H894.986V39.6133H909.146L944.156 96.2051H944.449C944.384 95.4564 944.254 92.7383 944.059 88.0508C943.863 83.3307 943.766 79.6523 943.766 77.0156V39.6133H954.459V111ZM997.965 111H986.295V49.623H965.299V39.6133H1018.96V49.623H997.965V111ZM1071.11 91.6152C1071.11 97.9629 1068.81 102.943 1064.22 106.557C1059.63 110.17 1053.3 111.977 1045.23 111.977C1037.16 111.977 1030.55 110.723 1025.41 108.217V97.1816C1028.66 98.7116 1032.11 99.916 1035.76 100.795C1039.44 101.674 1042.85 102.113 1046.01 102.113C1050.63 102.113 1054.04 101.234 1056.22 99.4766C1058.43 97.7188 1059.54 95.3587 1059.54 92.3965C1059.54 89.7272 1058.53 87.4648 1056.51 85.6094C1054.49 83.7539 1050.32 81.5566 1044.01 79.0176C1037.5 76.3809 1032.91 73.3698 1030.24 69.9844C1027.57 66.599 1026.24 62.5299 1026.24 57.7773C1026.24 51.8203 1028.35 47.1328 1032.58 43.7148C1036.82 40.2969 1042.5 38.5879 1049.62 38.5879C1056.46 38.5879 1063.26 40.0853 1070.04 43.0801L1066.32 52.6016C1059.98 49.9323 1054.31 48.5977 1049.33 48.5977C1045.56 48.5977 1042.69 49.4277 1040.74 51.0879C1038.79 52.7155 1037.81 54.8802 1037.81 57.582C1037.81 59.4375 1038.2 61.0326 1038.98 62.3672C1039.76 63.6693 1041.05 64.9062 1042.84 66.0781C1044.63 67.25 1047.85 68.7962 1052.51 70.7168C1057.75 72.8978 1061.59 74.9323 1064.03 76.8203C1066.47 78.7083 1068.26 80.8405 1069.4 83.2168C1070.54 85.5931 1071.11 88.3926 1071.11 91.6152Z" fill="#071435"/>
<path d="M96.6895 39.6133V85.8047C96.6895 91.0781 95.5501 95.7005 93.2715 99.6719C91.0254 103.611 87.7539 106.654 83.457 108.803C79.1927 110.919 74.082 111.977 68.125 111.977C59.2708 111.977 52.3861 109.633 47.4707 104.945C42.5553 100.258 40.0977 93.8125 40.0977 85.6094V39.6133H51.8164V84.7793C51.8164 90.6712 53.1836 95.0169 55.918 97.8164C58.6523 100.616 62.8516 102.016 68.5156 102.016C79.5182 102.016 85.0195 96.2376 85.0195 84.6816V39.6133H96.6895ZM156.113 91.6152C156.113 97.9629 153.818 102.943 149.229 106.557C144.639 110.17 138.307 111.977 130.234 111.977C122.161 111.977 115.553 110.723 110.41 108.217V97.1816C113.665 98.7116 117.116 99.916 120.762 100.795C124.44 101.674 127.858 102.113 131.016 102.113C135.638 102.113 139.04 101.234 141.221 99.4766C143.434 97.7188 144.541 95.3587 144.541 92.3965C144.541 89.7272 143.532 87.4648 141.514 85.6094C139.495 83.7539 135.329 81.5566 129.014 79.0176C122.503 76.3809 117.913 73.3698 115.244 69.9844C112.575 66.599 111.24 62.5299 111.24 57.7773C111.24 51.8203 113.356 47.1328 117.588 43.7148C121.82 40.2969 127.5 38.5879 134.629 38.5879C141.465 38.5879 148.268 40.0853 155.039 43.0801L151.328 52.6016C144.98 49.9323 139.316 48.5977 134.336 48.5977C130.56 48.5977 127.695 49.4277 125.742 51.0879C123.789 52.7155 122.812 54.8802 122.812 57.582C122.812 59.4375 123.203 61.0326 123.984 62.3672C124.766 63.6693 126.051 64.9062 127.842 66.0781C129.632 67.25 132.855 68.7962 137.51 70.7168C142.751 72.8978 146.592 74.9323 149.033 76.8203C151.475 78.7083 153.265 80.8405 154.404 83.2168C155.544 85.5931 156.113 88.3926 156.113 91.6152ZM214.219 111L207.09 91.1758H179.795L172.812 111H160.508L187.217 39.3203H199.912L226.621 111H214.219ZM204.014 81.1172L197.324 61.6836C196.836 60.3815 196.152 58.3307 195.273 55.5312C194.427 52.7318 193.841 50.681 193.516 49.3789C192.637 53.3828 191.351 57.7611 189.658 62.5137L183.213 81.1172H204.014ZM266.416 48.5977C259.71 48.5977 254.437 50.974 250.596 55.7266C246.755 60.4792 244.834 67.0384 244.834 75.4043C244.834 84.1608 246.673 90.7852 250.352 95.2773C254.062 99.7695 259.417 102.016 266.416 102.016C269.443 102.016 272.373 101.723 275.205 101.137C278.037 100.518 280.983 99.737 284.043 98.793V108.803C278.444 110.919 272.096 111.977 265 111.977C254.551 111.977 246.527 108.819 240.928 102.504C235.329 96.1562 232.529 87.0905 232.529 75.3066C232.529 67.8848 233.88 61.3906 236.582 55.8242C239.316 50.2578 243.255 45.9935 248.398 43.0312C253.542 40.069 259.58 38.5879 266.514 38.5879C273.805 38.5879 280.544 40.1178 286.729 43.1777L282.529 52.8945C280.12 51.7552 277.565 50.7624 274.863 49.916C272.194 49.0371 269.378 48.5977 266.416 48.5977Z" fill="white"/>
</svg>
